#format: frame checksums
#version: 2
#hash: MD5
#tb 0: 1/192000
#media_type 0: audio
#codec_id 0: pcm_s32le
#sample_rate 0: 192000
#channel_layout_name 0: stereo
#stream#, dts,        pts, duration,     size, hash
0,          0,          0,      360,     2880, 6b98069578ee656e183f8d24094e5c61
0,        360,        360,      360,     2880, 44aab9a661dd6672348b029a6a7b25b1
0,        720,        720,      360,     2880, eef7925767f6ad2eb7cc8f01071fb5fc
0,       1080,       1080,      360,     2880, 230bc1821b29d55c6323fd31eda57dc6
0,       1440,       1440,      360,     2880, 83043a7cd60b916d3207ee4a84159031
0,       1800,       1800,      360,     2880, 866e5c245f4b92084140e1a029592d4d
0,       2160,       2160,      360,     2880, c736c68b5eb7dd58a4dd5887b7f85077
0,       2520,       2520,      360,     2880, c81e97356bd1f4b57d2db2025e3bf66c
0,       2880,       2880,      360,     2880, 4ebaf94bdda97b5949c136d50a639ffd
0,       3240,       3240,      360,     2880, 7af86d31848f502d31e395e3161d5b30
0,       3600,       3600,      360,     2880, 4a6608a8590fc20fb887995b9278be2e
0,       3960,       3960,      360,     2880, 5558826570fd68bdbae6cbf4b8ece374
0,       4320,       4320,      360,     2880, 7e5f963ab1c6b965e40e9cdc876c18c3
0,       4680,       4680,      360,     2880, 34ed838b0d1b6a9c722d4ae59ddbdab6
0,       5040,       5040,      360,     2880, 6f0492180c945639d29ffcb132d03332
0,       5400,       5400,      360,     2880, 89e311a159bcf8070640abcc76680157
0,       5760,       5760,      360,     2880, 0dbfbec61b2830a0e1c5cf20806e0416
0,       6120,       6120,      360,     2880, e58bca846d5905415f4bbb2b68e118c2
0,       6480,       6480,      360,     2880, 532adb30101397c426fb94312acee673
0,       6840,       6840,      360,     2880, 32249f41dd3189e67f95896713c28820
0,       7200,       7200,      360,     2880, 656fc5b4fa07681f9ace088fbacf8d95
0,       7560,       7560,      360,     2880, 4c0d308d918668e88efb3ef09f45c6ad
0,       7920,       7920,      360,     2880, 9c2ae6bc224b48a9be108b61018358bf
0,       8280,       8280,      360,     2880, 23a25140fa6138e564be0d940499a98a
0,       8640,       8640,      360,     2880, 4fdc99a030336fa6151610d6c36ecd6e
0,       9000,       9000,      360,     2880, 3ab1b90778b3c1b721f21d0c0c43d0a7
0,       9360,       9360,      360,     2880, a8455ce5980bf1ddd0a8dfa9249846d6
0,       9720,       9720,      360,     2880, 808da4f65e77f6e2d6b438789a98e1cc
0,      10080,      10080,      360,     2880, b9d866e7b641480745ac022407361aab
0,      10440,      10440,      360,     2880, a660c84bae5d7f68595ac7cb14f99244
0,      10800,      10800,      360,     2880, b4ffc18f3e1cba8200038e4a8b91d2eb
0,      11160,      11160,      360,     2880, fb684f12d4dbc6bd6218731b402421b9
0,      11520,      11520,      360,     2880, 41b51eaee5d34f2f19fcc8e73e641213
0,      11880,      11880,      360,     2880, b37902d3373a95842b5ccfd7101d6302
0,      12240,      12240,      360,     2880, 82ddb56df537b089ce8c1e46a70374ae
0,      12600,      12600,      360,     2880, 935e372f4a3f51173a9da325c1f6e199
0,      12960,      12960,      360,     2880, d1944e95417a0bbb6a540e9158cf103f
0,      13320,      13320,      360,     2880, 00016375c1ee48a6387bf26a01fb4167
0,      13680,      13680,      360,     2880, 60995f105905929279c285a412cf62b0
0,      14040,      14040,      360,     2880, 614c14d952c6124e32cfbf4472181623
0,      14400,      14400,      360,     2880, 42b54fa266c611a87292990435aaa10b
0,      14760,      14760,      360,     2880, 67a992be9f30ef83697f548d20113510
0,      15120,      15120,      360,     2880, 16702dd92bf7c1a969472ae792fcaaaf
0,      15480,      15480,      360,     2880, 98aa262fe9e36730f353d7edcc7a968d
0,      15840,      15840,      360,     2880, edba6405b61a5873b24d8ee7a258b49b
0,      16200,      16200,      360,     2880, ad5bc62925920a4e26e1f9d6b0c4311e
0,      16560,      16560,      360,     2880, fb2b90fb9d575f1fddc1cf19a44b6a40
0,      16920,      16920,      360,     2880, 18453eda00a19923c0fd2be6ab4e161c
0,      17280,      17280,      360,     2880, f2873808b4494f8b810300ac9680cdea
0,      17640,      17640,      360,     2880, 2fe56db452dba6aa54411dbc79ecb316
0,      18000,      18000,      360,     2880, 7e0c951db965a79a3f7c7218c70d05c3
0,      18360,      18360,      360,     2880, 0386a5b76da8a22d17968002eb64fbb2
0,      18720,      18720,      360,     2880, 90d70c1a588db80d5599bc1070702299
0,      19080,      19080,      360,     2880, 2b00bd58b7de0c708f7be0b03f9a9bd7
0,      19440,      19440,      360,     2880, bfe42623c2e414fdeb249fe19f36c1a1
0,      19800,      19800,      360,     2880, f9a4423175be37e3644280baab0d00d8
0,      20160,      20160,      360,     2880, 57f0f65fc5dd9ebce64a0508dd9e7763
0,      20520,      20520,      360,     2880, c03fb85ca435509adf2340f0b17f7763
0,      20880,      20880,      360,     2880, 512f8059e7e4eff52e619f6fd35da501
0,      21240,      21240,      360,     2880, f520f016a38eb045fa5cb928af462d4c
0,      21600,      21600,      360,     2880, 0809d3fd8d9e6f560cc150d82d6142e3
0,      21960,      21960,      360,     2880, 77867e50d7618d3efe8e00f5a718b754
0,      22320,      22320,      360,     2880, a14a8f1fd936e4a227e7e2fe30c8b667
0,      22680,      22680,      360,     2880, c83c1ab3f736d5cd1e5dcb9735c67c89
0,      23040,      23040,      360,     2880, 9b90fe3867621627150e1362b15e7d92
0,      23400,      23400,      360,     2880, b44aa7c5dcb7d3bb01e4561804119bc4
0,      23760,      23760,      360,     2880, 5ebbe61ce01178bbaaf5dca8609cfb2a
0,      24120,      24120,      360,     2880, 6cf480b69281f7e13326e23529d31833
0,      24480,      24480,      360,     2880, dc7c4f1b390c09be2b7eff07f27dc7e4
0,      24840,      24840,      360,     2880, db47d669090f2de6649ef44984379eca
0,      25200,      25200,      360,     2880, 3d0bb85c46e6eafef2749eeeebfd84d7
0,      25560,      25560,      360,     2880, 35a12f48f0b1e6c82f56116fef15cb62
0,      25920,      25920,      360,     2880, d7eaead157c68f39519f6c6bbc2ef0aa
0,      26280,      26280,      360,     2880, 1cdc7aae7839f9721ff7ece18d3805ea
0,      26640,      26640,      360,     2880, dfc0811d9209f6d8cfcdc4a20a0d4658
0,      27000,      27000,      360,     2880, a561c2a944dbf3b4c7e5f39118cae61c
0,      27360,      27360,      360,     2880, 00475366595ab7677c4ffa5503842b3e
0,      27720,      27720,      360,     2880, bd2c950f4489a95e033eea4cffa36651
0,      28080,      28080,      360,     2880, e48c51c350cd25ac0079f27214ff74f0
0,      28440,      28440,      360,     2880, 54d0a319f0c645047c01f62131ce03f5
0,      28800,      28800,      360,     2880, 72293285062f4130b4a8fb80e64fb92a
0,      29160,      29160,      360,     2880, 33b6bf6adfa16eb2c8c2196827f738ea
0,      29520,      29520,      360,     2880, 2d76d815cca0b3203058880e9916d6ec
0,      29880,      29880,      360,     2880, 50fcdce4f5627f691cf84ceb291b962e
0,      30240,      30240,      360,     2880, c49ad4d3dc68c0a8dcb24195a7ae3054
0,      30600,      30600,      360,     2880, 5ccd9894975af6c3ef406eda15d1cab5
0,      30960,      30960,      360,     2880, 6ca6695a968bac30d53f4f3ea3730ccf
0,      31320,      31320,      360,     2880, e8946434d24b2f03a9e97f7f85d9ef74
0,      31680,      31680,      360,     2880, 8ea66f1933b55c3c1908437b0b3674ff
0,      32040,      32040,      360,     2880, e2311220f68a3bd668d4f824338ab816
0,      32400,      32400,      360,     2880, ab0685e2cb08339e041070425d11e8bd
0,      32760,      32760,      360,     2880, 292bac6ad2e42a08ba9e83f358b9e901
0,      33120,      33120,      360,     2880, 30b1feef07a8e2c30e2f35cc6522f1bd
0,      33480,      33480,      360,     2880, b0c49a1c8646937b3d4c4ca51fa55d96
0,      33840,      33840,      360,     2880, f375a4c0b4da26043ac3a5a6b9775d3a
0,      34200,      34200,      360,     2880, 6193ca42e8da35e04d049a61d44ba8fa
0,      34560,      34560,      360,     2880, 76f32b7256f95a3120df5fac55ec4bd3
0,      34920,      34920,      360,     2880, 2d6cd0ca49b771e55ea030a2a3927255
0,      35280,      35280,      360,     2880, a3887577ffb2cb93bc34a731234c8ebe
0,      35640,      35640,      360,     2880, 5acf169b0771c0fabd127ff129249cde
0,      36000,      36000,      360,     2880, 5a8c83eafcc83123e3c40e8ccf4445fe
0,      36360,      36360,      360,     2880, 4f3f8cc7c0a8e95567199308324c89d0
0,      36720,      36720,      360,     2880, 231d20920ccdbba164d324df30b7733e
0,      37080,      37080,      360,     2880, 6d094d203f845a54d0e1120b9f817cb4
0,      37440,      37440,      360,     2880, e75837559837abe5a6db08cec3452e8d
0,      37800,      37800,      360,     2880, dcf96c46c8e23103d4504ce35eaa1cc0
0,      38160,      38160,      360,     2880, 92811656a6e9a4da191494a35d9ce5a1
0,      38520,      38520,      360,     2880, 51a1c67a71dbbcb288d39987e535c48d
0,      38880,      38880,      360,     2880, a8e6a7226a1556e0238f50c2e085fe56
0,      39240,      39240,      360,     2880, 464b01b5827cfae3fc8e82b042cf8538
0,      39600,      39600,      360,     2880, 0851a56fa290622ab32edd78a48ea7ef
0,      39960,      39960,      360,     2880, ecdc5a272a6a8178aa0798f6f7f4ffdc
0,      40320,      40320,      360,     2880, 567cfb28af5388c841e75e49eb7d5a87
0,      40680,      40680,      360,     2880, b1621c809e1078307e10435b5a0ee7db
0,      41040,      41040,      360,     2880, 555c713a4f4e100cbcd81a07f4302154
0,      41400,      41400,      360,     2880, 66a2d94e8853974fafe46d3cbbd64198
0,      41760,      41760,      360,     2880, a3d14b27633b9aadf0b7225c1eda85c1
0,      42120,      42120,      360,     2880, 9a5ff7d63184215b1fa772fdcdc37f89
0,      42480,      42480,      360,     2880, 107b8b9d5fd594bc5e21f7b0034cb7e4
0,      42840,      42840,      360,     2880, bd4edfeb6db15d14f2374a4082f3b0d8
0,      43200,      43200,      360,     2880, ec6cb63cc9ca9c08115e5fee5696c99b
0,      43560,      43560,      360,     2880, 8fc3ecef3bc944ad8ec58258c0a12f6a
0,      43920,      43920,      360,     2880, f0479bb8d66bce6d51a66208c4dd95f8
0,      44280,      44280,      360,     2880, 7ae9aa50cf2c48dc0dc5230c351f2745
0,      44640,      44640,      360,     2880, a1fc1e0d39785d2abefa839c85c25a40
0,      45000,      45000,      360,     2880, 67c8549df4371e7aa31934c08c726612
0,      45360,      45360,      360,     2880, 9112b15e766ca21e21e7cb6012e895b6
0,      45720,      45720,      360,     2880, 3db1a1157efb1ff9e25fc5a79bb5fd91
0,      46080,      46080,      360,     2880, 8050e8feabc72c17d3725436a295d0e8
0,      46440,      46440,      360,     2880, ee1e0f6a99347d88299432eb9ab1fe7f
0,      46800,      46800,      360,     2880, 328b73f37c55f913e545aa2fec3b1739
0,      47160,      47160,      360,     2880, fa716f1738ef7a6f7135486d089b9d1f
0,      47520,      47520,      360,     2880, f01df416f6191852fa5bf6bb5947e322
0,      47880,      47880,      360,     2880, 55c0eb198a0d6509d1d107c1ccfdaaf3
0,      48240,      48240,      360,     2880, 6765fba66e973fb593983e92e3d9705a
0,      48600,      48600,      360,     2880, 308d3f69e6a397f47e8848ad6b11f4d9
0,      48960,      48960,      360,     2880, 366108c05aedb8d111b454aa86003f0e
0,      49320,      49320,      360,     2880, 3d5e1c06636488e1c29712c83ab42e11
0,      49680,      49680,      360,     2880, 4b5d75fa99ddfe9642f84ac7daff72db
0,      50040,      50040,      360,     2880, d933341d6a355c0fc33573159999cd25
0,      50400,      50400,      360,     2880, b33f908e0dc67730780831d132e8ee4a
0,      50760,      50760,      360,     2880, 7fd5cf309c71a707e79a3834ed2990c1
0,      51120,      51120,      360,     2880, 9b7521ca2f45e60db2f8fd85615fbacc
0,      51480,      51480,      360,     2880, 26024ed9f6b4dcb3c5ba96e21a43bcfc
0,      51840,      51840,      360,     2880, ac06b9ec7e01e14b36c8cf29a20d9baf
0,      52200,      52200,      360,     2880, 56a66aa5bcbc88ae9b9f62fa0e5d6bf5
0,      52560,      52560,      360,     2880, 38041773d8b75ebdcc1b07539b102e94
0,      52920,      52920,      360,     2880, c4aa2c445be481ef63bcca3e0e78c99c
0,      53280,      53280,      360,     2880, 15519ade8b72eb820a6c3495692212d7
0,      53640,      53640,      360,     2880, e23a3664a2f55cd7758a749701c57d81
0,      54000,      54000,      360,     2880, 8fbd69d5913f939c30b2640deacca9a3
0,      54360,      54360,      360,     2880, 3effd2104228c264c19c39f8eef14caf
0,      54720,      54720,      360,     2880, 64e0771b5886beb5830ff59d4763d7ec
0,      55080,      55080,      360,     2880, d85cdd6aaf43ba35e5bdaa9d7c6d7211
0,      55440,      55440,      360,     2880, 86ce741ad7206f6f9a13757ee4e39b26
0,      55800,      55800,      360,     2880, 24872e01ee8dcebc8bced2962a7f7d7b
0,      56160,      56160,      360,     2880, 51fb67f90bd05e597d30644ab015b0c9
0,      56520,      56520,      360,     2880, 1f34fc2f5d17ded793e69f84edba87f4
0,      56880,      56880,      360,     2880, cdbd3f772070ff78c0c60c422658162e
0,      57240,      57240,      360,     2880, bca8cd310fe0febe03d1a75241918c35
0,      57600,      57600,      360,     2880, 9b3dba2346031929ed9e45bd8896c4b9
0,      57960,      57960,      360,     2880, e70410b57e24140111de5c4d60d58d31
0,      58320,      58320,      360,     2880, ec0e935ff088790b8a088d0d3bd9ddec
0,      58680,      58680,      360,     2880, 5943c138480880f9dc966bc9b84710c4
0,      59040,      59040,      360,     2880, 0241cf9d4aead2d96497c4aa9c1e87eb
0,      59400,      59400,      360,     2880, ae495a3adb18d2185569841bdca6edfc
0,      59760,      59760,      360,     2880, 81c3dd4cf8a669a4f9fafff3dbf14f35
0,      60120,      60120,      360,     2880, 85930c5b793f8b4769ccae26d87bf9dc
0,      60480,      60480,      360,     2880, 5b93b06556f4a052dcf3cedb3408b7c6
0,      60840,      60840,      360,     2880, da93e8547157880a2c14472cfa2d7fd2
0,      61200,      61200,      360,     2880, a5b27171c5265bd596649a7d914e407a
0,      61560,      61560,      360,     2880, d2ebf4eab36e5181716fc23c0cc4eacb
0,      61920,      61920,      360,     2880, 7cffc76bf5a745d5c4f7af9d1572e518
0,      62280,      62280,      360,     2880, 27190fe7ff25e04400baed516bf495db
0,      62640,      62640,      360,     2880, f3ac4568e711e5022c23e1619cda7b40
0,      63000,      63000,      360,     2880, b450067fc39d5be1d4561c8cf3f9f707
0,      63360,      63360,      360,     2880, 9ab9ef2b193c3040ed3400592b585b41
0,      63720,      63720,      360,     2880, 846553ed240c9da006dd7aaf635e1d10
0,      64080,      64080,      360,     2880, 8d18546d10241f1e28918f9b6eefeee7
0,      64440,      64440,      360,     2880, d444db9f88fa48c45dd7834cc68936a3
0,      64800,      64800,      360,     2880, 3e1c7871246e4aa3b92395b57a0c7f85
0,      65160,      65160,      360,     2880, 60f0f880f9710186f6e6f102dc4de955
0,      65520,      65520,      360,     2880, 9afd905747296c95b5363336b2b35e35
0,      65880,      65880,      360,     2880, 05ae304abd5ab72c720dad6e9eac8444
0,      66240,      66240,      360,     2880, 43d43f892b62a6c80db9c1745f0c648a
0,      66600,      66600,      360,     2880, 5a392989c19ab5ffb629b986e7f6d36a
0,      66960,      66960,      360,     2880, 99207f8db26393ac170b91038623621f
0,      67320,      67320,      360,     2880, b33b58a8a3d2055298a2911585c00bb3
0,      67680,      67680,      360,     2880, baf8662b7075ce35559fb5b84c08e06f
0,      68040,      68040,      360,     2880, a8d52651afdb1ed16a604dc8b038e781
0,      68400,      68400,      360,     2880, 54708b80b00079d4e436959efa87f292
0,      68760,      68760,      360,     2880, d33dfe9f816f5e76b03fef07a891012a
0,      69120,      69120,      360,     2880, 0a413633b92bea0fe2be85fc71018d35
0,      69480,      69480,      360,     2880, 1862c8f49b77114af01d1480f5d0cebc
0,      69840,      69840,      360,     2880, 498ea3b555d5183bbe4193cdf5c93b9e
0,      70200,      70200,      360,     2880, 3ba1c36f7f81676d9878858e8afa8004
0,      70560,      70560,      360,     2880, 9b4208c9715bb9865db949ec4e7e9a93
0,      70920,      70920,      360,     2880, ef89492d469cc7dec6d50fdfa47fd2ba
0,      71280,      71280,      360,     2880, b7ca3403ff1972e7325ff9ef9205c188
0,      71640,      71640,      360,     2880, 914635953a91f3f8ba6796f0eccb7848
0,      72000,      72000,      360,     2880, d5ebb27e99eb9917040e97e16e321f02
0,      72360,      72360,      360,     2880, e88d9744941e7c9bc4d27037e3987500
0,      72720,      72720,      360,     2880, 24a4b78a39c4d2088f152c101783da7d
0,      73080,      73080,      360,     2880, c0a076476a0bc66e3b7c958f72b679dc
0,      73440,      73440,      360,     2880, 8917a86556ca8830bf9dc80630bc1488
0,      73800,      73800,      360,     2880, 96ff2b2942b832086a92da25ac9f6967
0,      74160,      74160,      360,     2880, a1aa27ca59695558966be9be8a40ac32
0,      74520,      74520,      360,     2880, 2ba7d935b2feac4772753946af7ef4d4
0,      74880,      74880,      360,     2880, 78e8c0dac770fcbb688ec074870e342d
0,      75240,      75240,      360,     2880, 83ea60d2bc54351fb4acbfa8fd281e7a
0,      75600,      75600,      360,     2880, f021d619c133b256809ce3b2ac3e2797
0,      75960,      75960,      360,     2880, cff4a7940e1aafed7efe187836b093e8
0,      76320,      76320,      360,     2880, 3f2d1184e613eac4299eca383e071942
0,      76680,      76680,      360,     2880, 63670409fa4d4b5c6801583ee5d2bc4b
0,      77040,      77040,      360,     2880, 7bf811053818498db6f4c60a0532b679
0,      77400,      77400,      360,     2880, d29500b1e355cfd6519f504afdb5cb10
0,      77760,      77760,      360,     2880, 0c2ae3c78d6361526e516a2d71f2a220
0,      78120,      78120,      360,     2880, e1ac202470a74e8753478219120d3364
0,      78480,      78480,      360,     2880, d898f2c851a705ac3658f0666d8da99b
0,      78840,      78840,      360,     2880, de05fffb18fc499f5336e0e85b04d018
0,      79200,      79200,      360,     2880, 7d560fbe35be50698c50b6c9eb8339e3
0,      79560,      79560,      360,     2880, 20815279f0764331843638a9e8095419
0,      79920,      79920,      360,     2880, 82f3cc8b6979d6162cdafa8eecf6d471
0,      80280,      80280,      360,     2880, 8e0684cc5dd711b802a28ae24aafe911
0,      80640,      80640,      360,     2880, 249729eda02353561045c7b1015e04a6
0,      81000,      81000,      360,     2880, 8ecc9ea170ccd620454b1b59f5a2ac2f
0,      81360,      81360,      360,     2880, e3645abdfb7a2ad2b8f49754af3481da
0,      81720,      81720,      360,     2880, 3ae461a4c0931b7b020bf23582e77934
0,      82080,      82080,      360,     2880, b074a5cfaf0b72aff334f2dfd8d01ba9
0,      82440,      82440,      360,     2880, 2793d26d2c9d1287bd4d1b80fecc3e56
0,      82800,      82800,      360,     2880, 78b32487163fd074478ff76e72ff1d21
0,      83160,      83160,      360,     2880, 39ea2c0969bac48c2fcf5ce3266cb47e
0,      83520,      83520,      360,     2880, 0007f3d7659f4e2e1777594ac2da04ed
0,      83880,      83880,      360,     2880, 566dd9b72e006438d67c4742403ded88
0,      84240,      84240,      360,     2880, 0c822f179d1ed31a3804b67c3c4352a3
0,      84600,      84600,      360,     2880, 186ba10fbfa92b2f0f805701c83c390b
0,      84960,      84960,      360,     2880, dbb70bc3b48237d19bf86c8b67e9eb78
0,      85320,      85320,      360,     2880, d0cb9b16a9289126e7a60363183b314c
0,      85680,      85680,      360,     2880, fbfd0d271c95d2aaceeaf2ab29ce31b3
0,      86040,      86040,      360,     2880, aa0df4a2174378006b1f57a7e6514f7f
0,      86400,      86400,      360,     2880, 503184298171fefdb24f27e453304afa
0,      86760,      86760,      360,     2880, 5621a041ffece63b413605c034a380fa
0,      87120,      87120,      360,     2880, 111fc76f5e34c72dcf00ae449d41c459
0,      87480,      87480,      360,     2880, 10f6b029b2c6f84bbedfb6356ac79479
0,      87840,      87840,      360,     2880, 3ac7cca18033a4d9ee0445d28a1d19e6
0,      88200,      88200,      360,     2880, 47a88344637484939219e2b7cb0d0919
0,      88560,      88560,      360,     2880, f49b37f7b311dda80ba27c7a354fdd1b
0,      88920,      88920,      360,     2880, 578f67f70e6b3007fe7af20f2345fb6f
0,      89280,      89280,      360,     2880, 2c57765bfef86721375ff7d1b9428e9a
0,      89640,      89640,      360,     2880, 4637cd80740e0ccbb7844aa0b72b1ce6
0,      90000,      90000,      360,     2880, 45d158f8c0db00445b0a1d458997d6d3
0,      90360,      90360,      360,     2880, 3a21f97498334f215a58d375aaa64725
0,      90720,      90720,      360,     2880, 4525892274e3f825c86f61c25f215e7e
0,      91080,      91080,      360,     2880, d1aad58ff407bfe271b7ce52e4ff5d69
0,      91440,      91440,      360,     2880, be9c1dcf8450b138b0c20455ffec776d
0,      91800,      91800,      360,     2880, 505f4dfd8aee4561c7e399e671d38736
0,      92160,      92160,      360,     2880, 176118fe0da4dad98db978bf0f66c21f
0,      92520,      92520,      360,     2880, 521a30d50d494fed90e92f4e57ff4454
0,      92880,      92880,      360,     2880, 0e8c062738addf1bc7eb20c969a6eed9
0,      93240,      93240,      360,     2880, a33f42eb19283eea250422727878e1f4
0,      93600,      93600,      360,     2880, 7b2454be563dc04b7ec785fa5f8e9a8c
0,      93960,      93960,      360,     2880, d5fee590a23c9b09a85a79f20821caf6
0,      94320,      94320,      360,     2880, 373269be5c80817c0c097c47d462b534
0,      94680,      94680,      360,     2880, 99e90fa76d7b7b9c9b5a3d6d2571914d
0,      95040,      95040,      360,     2880, 40a906b3b63ddff54038f1f3bc0bae2e
0,      95400,      95400,      360,     2880, 15e041ac721fcf9cce4731c911992eef
0,      95760,      95760,      360,     2880, 1745c300adf6cc8b1ce5fb1f45027170
